<mxfile host="app.diagrams.net" modified="2024-04-04T17:00:40.774Z" agent="Mozilla/5.0 (Windows NT 10.0; Win64; x64) AppleWebKit/537.36 (KHTML, like Gecko) Chrome/121.0.0.0 Safari/537.36 OPR/107.0.0.0" version="24.2.1" etag="Dpc8kVLiStHv-N3HxgeT" type="github">
  <diagram name="Страница — 1" id="BuAj-lrB0ni0z4gUs9v4">
    <mxGraphModel>
      <root>
        <mxCell id="0" />
        <mxCell id="1" parent="0" />
      </root>
    </mxGraphModel>
  </diagram>
</mxfile>
